<svg width="37" height="37" viewBox="0 0 37 37" fill="none" xmlns="http://www.w3.org/2000/svg">
<path d="M18.5 37C8.29921 37 0 28.7008 0 18.5C0 8.29921 8.29921 0 18.5 0C28.7008 0 37 8.29921 37 18.5C37 28.7008 28.7008 37 18.5 37ZM25.6154 17.0769H19.9231V11.3846C19.9231 11.0072 19.7731 10.6452 19.5063 10.3783C19.2394 10.1115 18.8774 9.96154 18.5 9.96154C18.1226 9.96154 17.7606 10.1115 17.4937 10.3783C17.2269 10.6452 17.0769 11.0072 17.0769 11.3846V17.0769H11.3846C11.0072 17.0769 10.6452 17.2269 10.3783 17.4937C10.1115 17.7606 9.96154 18.1226 9.96154 18.5C9.96154 18.8774 10.1115 19.2394 10.3783 19.5063C10.6452 19.7731 11.0072 19.9231 11.3846 19.9231H17.0769V25.6154C17.0769 25.9928 17.2269 26.3548 17.4937 26.6217C17.7606 26.8885 18.1226 27.0385 18.5 27.0385C18.8774 27.0385 19.2394 26.8885 19.5063 26.6217C19.7731 26.3548 19.9231 25.9928 19.9231 25.6154V19.9231H25.6154C25.9928 19.9231 26.3548 19.7731 26.6217 19.5063C26.8885 19.2394 27.0385 18.8774 27.0385 18.5C27.0385 18.1226 26.8885 17.7606 26.6217 17.4937C26.3548 17.2269 25.9928 17.0769 25.6154 17.0769Z" fill="white"/>
</svg>
