<svg width="23" height="19" viewBox="0 0 23 19" fill="none" xmlns="http://www.w3.org/2000/svg">
<path d="M11.4996 13.1427C13.3142 13.1427 14.7853 11.6717 14.7853 9.857C14.7853 8.04235 13.3142 6.57129 11.4996 6.57129C9.68493 6.57129 8.21387 8.04235 8.21387 9.857C8.21387 11.6717 9.68493 13.1427 11.4996 13.1427Z" fill="#E684C3"/>
<path d="M20.5357 3.28571H17.5067C17.3527 3.28571 17.1617 3.18612 17.0128 3.02902L15.6811 0.927187C15.66 0.893831 15.6365 0.862084 15.6107 0.83221C15.1507 0.295714 14.529 0 13.8616 0H9.13839C8.47098 0 7.84926 0.295714 7.38926 0.83221C7.3635 0.862084 7.33999 0.893831 7.31893 0.927187L5.98719 3.0321C5.87321 3.15634 5.71304 3.28879 5.54464 3.28879V2.87808C5.54464 2.66022 5.4581 2.45129 5.30405 2.29724C5.15 2.14319 4.94107 2.05665 4.72321 2.05665H3.49107C3.27322 2.05665 3.06428 2.14319 2.91023 2.29724C2.75619 2.45129 2.66964 2.66022 2.66964 2.87808V3.28879H2.46429C1.81093 3.28947 1.18452 3.54932 0.722523 4.01132C0.260527 4.47331 0.000679523 5.09972 0 5.75308V15.6071C0.000679523 16.2605 0.260527 16.8869 0.722523 17.3489C1.18452 17.8109 1.81093 18.0707 2.46429 18.0714H20.5357C21.1891 18.0707 21.8155 17.8109 22.2775 17.3489C22.7395 16.8869 22.9993 16.2605 23 15.6071V5.75C22.9993 5.09664 22.7395 4.47023 22.2775 4.00824C21.8155 3.54624 21.1891 3.28639 20.5357 3.28571ZM11.5 14.7857C10.5252 14.7857 9.57233 14.4967 8.76183 13.9551C7.95133 13.4135 7.31963 12.6438 6.94659 11.7432C6.57356 10.8426 6.47596 9.85168 6.66613 8.89563C6.8563 7.93958 7.3257 7.06139 8.01497 6.37212C8.70425 5.68284 9.58243 5.21344 10.5385 5.02327C11.4945 4.8331 12.4855 4.9307 13.3861 5.30374C14.2867 5.67677 15.0564 6.30848 15.598 7.11897C16.1395 7.92947 16.4286 8.88236 16.4286 9.85714C16.4271 11.1638 15.9073 12.4166 14.9834 13.3405C14.0594 14.2645 12.8067 14.7842 11.5 14.7857Z" fill="#E684C3"/>
</svg>
