<svg width="20" height="20" viewBox="0 0 20 20" fill="none" xmlns="http://www.w3.org/2000/svg">
<path d="M14.0894 1.65745C15.1875 1.66073 16.2398 2.09841 17.0163 2.8749C17.7927 3.6514 18.2304 4.70361 18.2337 5.80174V14.0894C18.2304 15.1875 17.7927 16.2398 17.0163 17.0163C16.2398 17.7927 15.1875 18.2304 14.0894 18.2337H5.80174C4.70361 18.2304 3.6514 17.7927 2.8749 17.0163C2.09841 16.2398 1.66073 15.1875 1.65745 14.0894V5.80174C1.66073 4.70361 2.09841 3.6514 2.8749 2.8749C3.6514 2.09841 4.70361 1.66073 5.80174 1.65745H14.0894ZM14.0894 0H5.80174C2.61071 0 0 2.61071 0 5.80174V14.0894C0 17.2804 2.61071 19.8912 5.80174 19.8912H14.0894C17.2804 19.8912 19.8912 17.2804 19.8912 14.0894V5.80174C19.8912 2.61071 17.2804 0 14.0894 0Z" fill="#E684C3"/>
<path d="M15.4139 5.71645C15.1689 5.71645 14.9293 5.64378 14.7255 5.50762C14.5218 5.37147 14.3629 5.17795 14.2692 4.95154C14.1754 4.72513 14.1508 4.47599 14.1986 4.23563C14.2465 3.99527 14.3645 3.77449 14.5378 3.6012C14.711 3.42791 14.9318 3.3099 15.1722 3.26209C15.4125 3.21428 15.6617 3.23882 15.8881 3.3326C16.1145 3.42638 16.308 3.5852 16.4442 3.78897C16.5803 3.99273 16.653 4.2323 16.653 4.47736C16.6534 4.64018 16.6215 4.80146 16.5594 4.95195C16.4972 5.10244 16.406 5.23918 16.2909 5.35431C16.1757 5.46944 16.039 5.56069 15.8885 5.62284C15.738 5.68499 15.5767 5.7168 15.4139 5.71645ZM10.0447 6.54221C10.6983 6.54221 11.3371 6.736 11.8805 7.09909C12.4239 7.46218 12.8474 7.97825 13.0975 8.58205C13.3476 9.18584 13.4131 9.85024 13.2856 10.4912C13.1581 11.1322 12.8434 11.721 12.3812 12.1831C11.9191 12.6452 11.3303 12.9599 10.6894 13.0874C10.0484 13.2149 9.38398 13.1495 8.78018 12.8994C8.17639 12.6493 7.66032 12.2258 7.29723 11.6824C6.93414 11.139 6.74034 10.5001 6.74034 9.84657C6.74128 8.97049 7.08972 8.13055 7.7092 7.51107C8.32869 6.89158 9.16863 6.54314 10.0447 6.54221ZM10.0447 4.89024C9.06444 4.89024 8.10619 5.18093 7.29112 5.72554C6.47606 6.27014 5.84079 7.04422 5.46566 7.94987C5.09053 8.85552 4.99237 9.85207 5.18362 10.8135C5.37486 11.7749 5.8469 12.6581 6.54006 13.3512C7.23321 14.0444 8.11634 14.5164 9.07778 14.7077C10.0392 14.8989 11.0358 14.8008 11.9414 14.4256C12.8471 14.0505 13.6211 13.4152 14.1657 12.6002C14.7104 11.7851 15.001 10.8268 15.001 9.84657C15.001 8.53207 14.4789 7.27141 13.5494 6.34192C12.6199 5.41243 11.3592 4.89024 10.0447 4.89024Z" fill="#E684C3"/>
<path d="M14.0894 1.65745C15.1875 1.66073 16.2398 2.09841 17.0163 2.8749C17.7927 3.6514 18.2304 4.70361 18.2337 5.80174V14.0894C18.2304 15.1875 17.7927 16.2398 17.0163 17.0163C16.2398 17.7927 15.1875 18.2304 14.0894 18.2337H5.80174C4.70361 18.2304 3.6514 17.7927 2.8749 17.0163C2.09841 16.2398 1.66073 15.1875 1.65745 14.0894V5.80174C1.66073 4.70361 2.09841 3.6514 2.8749 2.8749C3.6514 2.09841 4.70361 1.66073 5.80174 1.65745H14.0894ZM14.0894 0H5.80174C2.61071 0 0 2.61071 0 5.80174V14.0894C0 17.2804 2.61071 19.8912 5.80174 19.8912H14.0894C17.2804 19.8912 19.8912 17.2804 19.8912 14.0894V5.80174C19.8912 2.61071 17.2804 0 14.0894 0Z" fill="#E684C3"/>
<path d="M15.4139 5.71645C15.1689 5.71645 14.9293 5.64378 14.7255 5.50762C14.5218 5.37147 14.3629 5.17795 14.2692 4.95154C14.1754 4.72513 14.1508 4.47599 14.1986 4.23563C14.2465 3.99527 14.3645 3.77449 14.5378 3.6012C14.711 3.42791 14.9318 3.3099 15.1722 3.26209C15.4125 3.21428 15.6617 3.23882 15.8881 3.3326C16.1145 3.42638 16.308 3.5852 16.4442 3.78897C16.5803 3.99273 16.653 4.2323 16.653 4.47736C16.6534 4.64018 16.6215 4.80146 16.5594 4.95195C16.4972 5.10244 16.406 5.23918 16.2909 5.35431C16.1757 5.46944 16.039 5.56069 15.8885 5.62284C15.738 5.68499 15.5767 5.7168 15.4139 5.71645ZM10.0447 6.54221C10.6983 6.54221 11.3371 6.736 11.8805 7.09909C12.4239 7.46218 12.8474 7.97825 13.0975 8.58205C13.3476 9.18584 13.4131 9.85024 13.2856 10.4912C13.1581 11.1322 12.8434 11.721 12.3812 12.1831C11.9191 12.6452 11.3303 12.9599 10.6894 13.0874C10.0484 13.2149 9.38398 13.1495 8.78018 12.8994C8.17639 12.6493 7.66032 12.2258 7.29723 11.6824C6.93414 11.139 6.74034 10.5001 6.74034 9.84657C6.74128 8.97049 7.08972 8.13055 7.7092 7.51107C8.32869 6.89158 9.16863 6.54314 10.0447 6.54221ZM10.0447 4.89024C9.06444 4.89024 8.10619 5.18093 7.29112 5.72554C6.47606 6.27014 5.84079 7.04422 5.46566 7.94987C5.09053 8.85552 4.99237 9.85207 5.18362 10.8135C5.37486 11.7749 5.8469 12.6581 6.54006 13.3512C7.23321 14.0444 8.11634 14.5164 9.07778 14.7077C10.0392 14.8989 11.0358 14.8008 11.9414 14.4256C12.8471 14.0505 13.6211 13.4152 14.1657 12.6002C14.7104 11.7851 15.001 10.8268 15.001 9.84657C15.001 8.53207 14.4789 7.27141 13.5494 6.34192C12.6199 5.41243 11.3592 4.89024 10.0447 4.89024Z" fill="#E684C3"/>
</svg>
