<svg width="30" height="36" viewBox="0 0 30 36" fill="none" xmlns="http://www.w3.org/2000/svg">
<path d="M20.1096 8.9809C20.1096 8.9809 22.0791 8.01074 14.9355 8.01074C12.3771 8.01074 9.87613 8.76939 7.74891 10.1908C5.62168 11.6121 3.96371 13.6324 2.98466 15.996C2.0056 18.3597 1.74944 20.9605 2.24856 23.4698C2.74767 25.979 3.97966 28.2839 5.78871 30.093C7.59777 31.902 9.90265 33.134 12.4119 33.6331C14.9211 34.1322 17.522 33.8761 19.8857 32.897C22.2493 31.918 24.2695 30.26 25.6909 28.1328C27.1123 26.0055 27.8709 23.5046 27.8709 20.9462" stroke="white" stroke-width="4" stroke-miterlimit="10" stroke-linecap="round"/>
<path d="M14.8047 2L21.3377 8.4024L14.8047 14.8048" stroke="white" stroke-width="4" stroke-linecap="round" stroke-linejoin="round"/>
</svg>
