<svg width="20" height="20" viewBox="0 0 20 20" fill="none" xmlns="http://www.w3.org/2000/svg">
<path fill-rule="evenodd" clip-rule="evenodd" d="M16.9931 2.89047C16.0737 1.97054 14.9813 1.24156 13.7789 0.745497C12.5766 0.249435 11.288 -0.00391003 9.9873 4.56162e-05C4.52878 4.56162e-05 0.0852476 4.42138 0.0830276 9.8568C0.0806129 11.5876 0.536836 13.2881 1.40525 14.7852L0 19.8912L5.25028 18.5205C6.70358 19.3078 8.33044 19.7199 9.9833 19.7193H9.9873C15.4454 19.7193 19.8885 15.2976 19.8911 9.86257C19.8944 8.56635 19.6399 7.28241 19.1424 6.08545C18.6449 4.8885 17.9143 3.80245 16.9931 2.89047ZM9.9873 18.0557H9.98375C8.51029 18.0561 7.06362 17.6618 5.79418 16.9137L5.49359 16.7361L2.37806 17.5495L3.20966 14.5263L3.01386 14.2155C2.18997 12.9111 1.75346 11.3996 1.75513 9.8568C1.75513 5.34001 5.44964 1.66504 9.99041 1.66504C12.1687 1.66115 14.2593 2.52264 15.8024 4.06002C17.3455 5.5974 18.2148 7.68477 18.219 9.86302C18.2173 14.3803 14.5245 18.0557 9.9873 18.0557ZM14.5023 11.9201C14.255 11.7966 13.0371 11.2008 12.8116 11.1186C12.586 11.0365 12.4195 10.9952 12.2548 11.2421C12.0901 11.4889 11.6154 12.0413 11.4711 12.2078C11.3268 12.3743 11.1825 12.3925 10.9352 12.269C10.6879 12.1456 9.89006 11.8859 8.94479 11.0467C8.20909 10.3936 7.7127 9.58729 7.5684 9.34088C7.4241 9.09446 7.55286 8.96081 7.67673 8.83827C7.78817 8.72771 7.92404 8.55056 8.04791 8.4067C8.17179 8.26285 8.21308 8.15984 8.29522 7.99556C8.37736 7.83128 8.33651 7.68743 8.2748 7.56444C8.21308 7.44145 7.71802 6.22889 7.51201 5.73561C7.31088 5.25521 7.10708 5.32047 6.95523 5.31293C6.81093 5.30582 6.64444 5.30405 6.4806 5.30405C6.35535 5.30731 6.23212 5.33635 6.1186 5.38937C6.00508 5.44238 5.90371 5.51823 5.82082 5.61218C5.59394 5.85904 4.95458 6.45578 4.95458 7.667C4.95458 8.87823 5.84257 10.0504 5.96512 10.2147C6.08766 10.3789 7.71003 12.8667 10.1924 13.9336C10.6534 14.131 11.1244 14.3041 11.6035 14.4522C12.1962 14.6395 12.7356 14.6134 13.1619 14.5499C13.6374 14.4793 14.6271 13.954 14.8327 13.3786C15.0382 12.8032 15.0387 12.3103 14.977 12.2078C14.9152 12.1052 14.7501 12.043 14.5023 11.9201Z" fill="#E684C3"/>
</svg>
