<svg width="72" height="63" viewBox="0 0 72 63" fill="none" xmlns="http://www.w3.org/2000/svg">
<path d="M60.7795 11.0108V8.75807C60.7743 6.96732 60.0581 5.2514 58.7873 3.98514C57.5165 2.71888 55.7944 2.0052 53.9973 2H8.78225C6.98509 2.0052 5.26303 2.71888 3.99224 3.98514C2.72145 5.2514 2.00522 6.96732 2 8.75807V44.8011C2.00522 46.5919 2.72145 48.3078 3.99224 49.5741C5.26303 50.8403 6.98509 51.554 8.78225 51.5592H11.043" stroke="black" stroke-width="3" stroke-linejoin="round"/>
<path d="M63.4629 13.1416H19.6789C16.0685 13.1416 13.1416 16.0609 13.1416 19.6621V54.2594C13.1416 57.8606 16.0685 60.7799 19.6789 60.7799H63.4629C67.0734 60.7799 70.0002 57.8606 70.0002 54.2594V19.6621C70.0002 16.0609 67.0734 13.1416 63.4629 13.1416Z" stroke="black" stroke-width="3" stroke-linejoin="round"/>
<path d="M52.5196 30.4293C54.9597 30.4293 56.9377 28.5372 56.9377 26.2033C56.9377 23.8693 54.9597 21.9773 52.5196 21.9773C50.0796 21.9773 48.1016 23.8693 48.1016 26.2033C48.1016 28.5372 50.0796 30.4293 52.5196 30.4293Z" stroke="black" stroke-width="3" stroke-miterlimit="10"/>
<path d="M48.131 47.7722L35.7429 35.5356C34.951 34.7559 33.8917 34.3046 32.7789 34.2728C31.6661 34.241 30.5826 34.631 29.7472 35.3642L13.1416 49.9634M37.1971 60.7794L54.0542 44.1036C54.8299 43.3413 55.8615 42.8924 56.9499 42.8435C58.0382 42.7945 59.1062 43.1491 59.9476 43.8387L70.0002 52.1264" stroke="black" stroke-width="3" stroke-linecap="round" stroke-linejoin="round"/>
<path d="M60.7795 11.0108V8.75807C60.7743 6.96732 60.0581 5.2514 58.7873 3.98514C57.5165 2.71888 55.7944 2.0052 53.9973 2H8.78225C6.98509 2.0052 5.26303 2.71888 3.99224 3.98514C2.72145 5.2514 2.00522 6.96732 2 8.75807V44.8011C2.00522 46.5919 2.72145 48.3078 3.99224 49.5741C5.26303 50.8403 6.98509 51.554 8.78225 51.5592H11.043" stroke="black" stroke-width="3" stroke-linejoin="round"/>
<path d="M63.4629 13.1416H19.6789C16.0685 13.1416 13.1416 16.0609 13.1416 19.6621V54.2594C13.1416 57.8606 16.0685 60.7799 19.6789 60.7799H63.4629C67.0734 60.7799 70.0002 57.8606 70.0002 54.2594V19.6621C70.0002 16.0609 67.0734 13.1416 63.4629 13.1416Z" stroke="black" stroke-width="3" stroke-linejoin="round"/>
<path d="M52.5196 30.4293C54.9597 30.4293 56.9377 28.5372 56.9377 26.2033C56.9377 23.8693 54.9597 21.9773 52.5196 21.9773C50.0796 21.9773 48.1016 23.8693 48.1016 26.2033C48.1016 28.5372 50.0796 30.4293 52.5196 30.4293Z" stroke="black" stroke-width="3" stroke-miterlimit="10"/>
<path d="M48.131 47.7722L35.7429 35.5356C34.951 34.7559 33.8917 34.3046 32.7789 34.2728C31.6661 34.241 30.5826 34.631 29.7472 35.3642L13.1416 49.9634M37.1971 60.7794L54.0542 44.1036C54.8299 43.3413 55.8615 42.8924 56.9499 42.8435C58.0382 42.7945 59.1062 43.1491 59.9476 43.8387L70.0002 52.1264" stroke="black" stroke-width="3" stroke-linecap="round" stroke-linejoin="round"/>
</svg>
