<svg xmlns="http://www.w3.org/2000/svg" xmlns:xlink="http://www.w3.org/1999/xlink" viewBox="0 0 600 600" width="600" height="600" preserveAspectRatio="xMidYMid meet" style="width: 100%; height: 100%; transform: translate3d(0px, 0px, 0px); content-visibility: visible;" id="Women Dress"><defs><clipPath id="__lottie_element_5078"><rect width="600" height="600" x="0" y="0"/></clipPath></defs><g clip-path="url(#__lottie_element_5078)"><g transform="matrix(1,0,0,1,0,0)" opacity="1" style="display: block;"><g opacity="1" transform="matrix(1,0,0,1,381.3590087890625,100.9489974975586)"><path fill="rgb(255,51,84)" fill-opacity="1" d=" M20.347999572753906,36.499000549316406 C20.347999572753906,36.499000549316406 10.982999801635742,-16.32200050354004 10.982999801635742,-16.32200050354004 C8.616000175476074,-29.672000885009766 -1.909999966621399,-36.499000549316406 -10.63700008392334,-30.3439998626709 C-17.033000946044922,-25.834999084472656 -20.347999572753906,-15.668000221252441 -18.614999771118164,-5.88700008392334 C-18.614999771118164,-5.88700008392334 0.6380000114440918,36.499000549316406 0.6380000114440918,36.499000549316406"/></g><g opacity="1" transform="matrix(1,0,0,1,365.59100341796875,100.9489974975586)"><path stroke-linecap="butt" stroke-linejoin="miter" fill-opacity="0" stroke-miterlimit="10" stroke="rgb(0,0,0)" stroke-opacity="1" stroke-width="11.259" d=" M20.347999572753906,36.499000549316406 C20.347999572753906,36.499000549316406 10.982999801635742,-16.32200050354004 10.982999801635742,-16.32200050354004 C8.616000175476074,-29.672000885009766 -1.909000039100647,-36.499000549316406 -10.63700008392334,-30.3439998626709 C-17.031999588012695,-25.834999084472656 -20.347000122070312,-15.668000221252441 -18.613000869750977,-5.88700008392334 C-18.613000869750977,-5.88700008392334 0.6380000114440918,36.499000549316406 0.6380000114440918,36.499000549316406"/></g></g><g transform="matrix(1,0,0,1,0,0)" opacity="1" style="display: block;"><g opacity="1" transform="matrix(1,0,0,1,312.489990234375,396.02801513671875)"><path fill="rgb(255,51,84)" fill-opacity="1" d=" M-77.16899871826172,-140.32400512695312 C-77.16899871826172,-87.23500061035156 -172.04299926757812,6.090000152587891 -156.22500610351562,56.768001556396484 C-143.093994140625,98.83799743652344 -42.36899948120117,140.32400512695312 1.4479999542236328,135.60400390625 C45.266998291015625,130.88499450683594 148.39599609375,99.51399993896484 159.1219940185547,56.768001556396484 C172.04200744628906,5.275000095367432 80.06700134277344,-87.23500061035156 80.06700134277344,-140.32400512695312"/></g><g opacity="1" transform="matrix(1,0,0,1,285.9429931640625,396.02801513671875)"><path stroke-linecap="butt" stroke-linejoin="miter" fill-opacity="0" stroke-miterlimit="10" stroke="rgb(0,0,0)" stroke-opacity="1" stroke-width="13.37" d=" M-77.16799926757812,-140.32400512695312 C-77.16799926757812,-87.23500061035156 -172.04200744628906,6.090000152587891 -156.2239990234375,56.768001556396484 C-143.09300231933594,98.83799743652344 -42.36899948120117,140.32400512695312 1.4490000009536743,135.60400390625 C45.26599884033203,130.88499450683594 148.3979949951172,99.51399993896484 159.12399291992188,56.768001556396484 C172.04299926757812,5.275000095367432 80.06800079345703,-87.23500061035156 80.06800079345703,-140.32400512695312"/></g></g><g transform="matrix(1,0,0,1,0,0)" opacity="1" style="display: block;"><g opacity="1" transform="matrix(1,0,0,1,224.30499267578125,103.02899932861328)"><path fill="rgb(255,51,84)" fill-opacity="1" d=" M-20.347999572753906,34.41899871826172 C-20.347999572753906,34.41899871826172 -10.984000205993652,-18.402999877929688 -10.984000205993652,-18.402999877929688 C-8.616999626159668,-31.753000259399414 1.9079999923706055,-38.58000183105469 10.63599967956543,-32.42499923706055 C17.0310001373291,-27.916000366210938 20.347000122070312,-17.749000549316406 18.613000869750977,-7.9679999351501465 C18.613000869750977,-7.9679999351501465 -4.800000190734863,38.58000183105469 -4.800000190734863,38.58000183105469"/></g></g><g transform="matrix(1,0,0,1,0,0)" opacity="1" style="display: block;"><g opacity="1" transform="matrix(1,0,0,1,313.6719970703125,185.73699951171875)"><path fill="rgb(255,51,84)" fill-opacity="1" d=" M78.61699676513672,69.96600341796875 C78.61699676513672,69.96600341796875 -78.61799621582031,69.96600341796875 -78.61799621582031,69.96600341796875 C-78.61799621582031,69.96600341796875 -141.79400634765625,-27.839000701904297 -118.25599670410156,-48.28799819946289 C-93.3030014038086,-69.96600341796875 0,10.84000015258789 0,10.84000015258789 C0,10.84000015258789 93.30400085449219,-69.96600341796875 118.25599670410156,-48.28799819946289 C141.79400634765625,-27.839000701904297 78.61699676513672,69.96600341796875 78.61699676513672,69.96600341796875z"/></g><g opacity="1" transform="matrix(1,0,0,1,287.3919982910156,185.73699951171875)"><path stroke-linecap="butt" stroke-linejoin="miter" fill-opacity="0" stroke-miterlimit="10" stroke="rgb(0,0,0)" stroke-opacity="1" stroke-width="13.37" d=" M78.61799621582031,69.96600341796875 C78.61799621582031,69.96600341796875 -78.61699676513672,69.96600341796875 -78.61699676513672,69.96600341796875 C-78.61699676513672,69.96600341796875 -141.79299926757812,-27.839000701904297 -118.25499725341797,-48.28799819946289 C-93.302001953125,-69.96600341796875 0,10.84000015258789 0,10.84000015258789 C0,10.84000015258789 93.30400085449219,-69.96600341796875 118.25599670410156,-48.28799819946289 C141.79400634765625,-27.839000701904297 78.61799621582031,69.96600341796875 78.61799621582031,69.96600341796875z"/></g></g><g transform="matrix(1,0,0,1,0,0)" opacity="1" style="display: block;"><g opacity="1" transform="matrix(1,0,0,1,209.19400024414062,100.9489974975586)"><path stroke-linecap="butt" stroke-linejoin="miter" fill-opacity="0" stroke-miterlimit="10" stroke="rgb(0,0,0)" stroke-opacity="1" stroke-width="11.259" d=" M-20.347000122070312,36.499000549316406 C-20.347000122070312,36.499000549316406 -10.982999801635742,-16.32200050354004 -10.982999801635742,-16.32200050354004 C-8.616000175476074,-29.672000885009766 1.909000039100647,-36.499000549316406 10.63700008392334,-30.3439998626709 C17.031999588012695,-25.834999084472656 20.347999572753906,-15.668000221252441 18.61400032043457,-5.88700008392334 C18.61400032043457,-5.88700008392334 -0.6380000114440918,36.499000549316406 -0.6380000114440918,36.499000549316406"/></g></g></g></svg>